<svg width="20" height="20" viewBox="0 0 20 20" fill="none" xmlns="http://www.w3.org/2000/svg">
<g id="Icon/Fill/navigation-2">
<path id="Mask" fill-rule="evenodd" clip-rule="evenodd" d="M11.3891 18.3333C11.3716 18.3333 11.355 18.3325 11.3383 18.3316C10.9616 18.3091 10.6475 18.0358 10.5725 17.6658L9.29081 11.36C9.22414 11.0316 8.96831 10.7758 8.63998 10.7091L2.33414 9.42663C1.96414 9.35247 1.69081 9.0383 1.66831 8.66163C1.64581 8.28413 1.87831 7.93913 2.23664 7.8208L15.57 3.37663C15.8691 3.27497 16.1991 3.3533 16.4225 3.57747C16.6458 3.8008 16.7233 4.1308 16.6241 4.42997L12.1791 17.7633C12.0658 18.1058 11.7458 18.3333 11.3891 18.3333Z" fill="#231F20"/>
<mask id="mask0" mask-type="alpha" maskUnits="userSpaceOnUse" x="1" y="3" width="16" height="16">
<path id="Mask_2" fill-rule="evenodd" clip-rule="evenodd" d="M11.3891 18.3333C11.3716 18.3333 11.355 18.3325 11.3383 18.3316C10.9616 18.3091 10.6475 18.0358 10.5725 17.6658L9.29081 11.36C9.22414 11.0316 8.96831 10.7758 8.63998 10.7091L2.33414 9.42663C1.96414 9.35247 1.69081 9.0383 1.66831 8.66163C1.64581 8.28413 1.87831 7.93913 2.23664 7.8208L15.57 3.37663C15.8691 3.27497 16.1991 3.3533 16.4225 3.57747C16.6458 3.8008 16.7233 4.1308 16.6241 4.42997L12.1791 17.7633C12.0658 18.1058 11.7458 18.3333 11.3891 18.3333Z" fill="white"/>
</mask>
<g mask="url(#mask0)">
<g id="&#240;&#159;&#142;&#168; Color">
<rect id="Base" width="20" height="20" fill="white"/>
</g>
</g>
</g>
</svg>
